<svg width="39" height="36" fill="none" xmlns="http://www.w3.org/2000/svg"><path d="M12 6H9v3h3V6zM12 9H9v3h3V9zM15 12h-3v3h3v-3zM18 9h-3v3h3V9zM15 6h-3v3h3V6zM9 9H6v3h3V9zM9 12H6v3h3v-3zM9 15H6v3h3v-3zM18 6h-3v3h3V6zM12 15H9v3h3v-3zM12 18H9v3h3v-3zM15 15h-3v3h3v-3zM15 18h-3v3h3v-3zM15 21h-3v3h3v-3zM18 15h-3v3h3v-3zM18 12h-3v3h3v-3zM18 21h-3v3h3v-3zM18 18h-3v3h3v-3zM18 24h-3v3h3v-3zM27 6h3v3h-3V6zM27 9h3v3h-3V9zM24 9h3v3h-3V9zM27 12h3v3h-3v-3zM24 12h3v3h-3v-3zM21 9h3v3h-3V9zM24 6h3v3h-3V6zM30 9h3v3h-3V9zM36 13h3v3h-3v-3zM27 27h3v3h-3v-3zM18 33h3v3h-3v-3zM9 27h3v3H9v-3zM24 0h3v3h-3V0zM33 3h3v3h-3V3zM3 3h3v3H3V3zM12 0h3v3h-3V0zM0 13h3v3H0v-3zM30 12h3v3h-3v-3zM30 15h3v3h-3v-3zM21 6h3v3h-3V6zM27 15h3v3h-3v-3zM27 18h3v3h-3v-3zM24 15h3v3h-3v-3zM24 18h3v3h-3v-3zM24 21h3v3h-3v-3zM21 15h3v3h-3v-3zM21 12h3v3h-3v-3zM21 21h3v3h-3v-3zM21 18h3v3h-3v-3zM21 24h3v3h-3v-3zM21 9h-3v3h3V9zM21 15h-3v3h3v-3zM21 12h-3v3h3v-3zM21 21h-3v3h3v-3zM21 18h-3v3h3v-3zM21 24h-3v3h3v-3zM21 27h-3v3h3v-3z" fill="red"/></svg>