<svg width="27" height="24" fill="none" xmlns="http://www.w3.org/2000/svg"><path d="M6 0H3v3h3V0zM6 3H3v3h3V3zM9 6H6v3h3V6zM12 3H9v3h3V3zM9 0H6v3h3V0zM3 3H0v3h3V3zM3 6H0v3h3V6zM3 9H0v3h3V9zM12 0H9v3h3V0zM6 9H3v3h3V9zM6 12H3v3h3v-3zM9 9H6v3h3V9zM9 12H6v3h3v-3zM9 15H6v3h3v-3zM12 9H9v3h3V9zM12 6H9v3h3V6zM12 15H9v3h3v-3zM12 12H9v3h3v-3zM12 18H9v3h3v-3zM21 0h3v3h-3V0zM21 3h3v3h-3V3zM18 3h3v3h-3V3zM21 6h3v3h-3V6zM18 6h3v3h-3V6zM15 3h3v3h-3V3zM18 0h3v3h-3V0zM24 3h3v3h-3V3zM24 6h3v3h-3V6zM24 9h3v3h-3V9zM15 0h3v3h-3V0zM21 9h3v3h-3V9zM21 12h3v3h-3v-3zM18 9h3v3h-3V9zM18 12h3v3h-3v-3zM18 15h3v3h-3v-3zM15 9h3v3h-3V9zM15 6h3v3h-3V6zM15 15h3v3h-3v-3zM15 12h3v3h-3v-3zM15 18h3v3h-3v-3zM15 3h-3v3h3V3zM15 9h-3v3h3V9zM15 6h-3v3h3V6zM15 15h-3v3h3v-3zM15 12h-3v3h3v-3zM15 18h-3v3h3v-3zM15 21h-3v3h3v-3z" fill="red"/></svg>