<svg width="33" height="30" fill="none" xmlns="http://www.w3.org/2000/svg"><path d="M9 3H6v3h3V3zM6 3H3v3h3V3zM9 6H6v3h3V6zM12 9H9v3h3V9zM15 6h-3v3h3V6zM12 3H9v3h3V3zM6 6H3v3h3V6zM6 9H3v3h3V9zM6 12H3v3h3v-3zM3 6H0v3h3V6zM3 9H0v3h3V9zM3 12H0v3h3v-3zM15 3h-3v3h3V3zM9 12H6v3h3v-3zM9 15H6v3h3v-3zM12 12H9v3h3v-3zM12 15H9v3h3v-3zM12 18H9v3h3v-3zM15 12h-3v3h3v-3zM15 9h-3v3h3V9zM15 18h-3v3h3v-3zM15 15h-3v3h3v-3zM15 21h-3v3h3v-3zM24 3h3v3h-3V3zM27 3h3v3h-3V3zM24 6h3v3h-3V6zM21 6h3v3h-3V6zM24 9h3v3h-3V9zM21 9h3v3h-3V9zM18 6h3v3h-3V6zM21 3h3v3h-3V3zM27 6h3v3h-3V6zM30 6h3v3h-3V6zM30 9h3v3h-3V9zM30 12h3v3h-3v-3zM27 9h3v3h-3V9zM27 12h3v3h-3v-3zM18 3h3v3h-3V3zM9 0H6v3h3V0zM12 0H9v3h3V0zM15 0h-3v3h3V0zM24 0h3v3h-3V0zM21 0h3v3h-3V0zM18 0h3v3h-3V0zM24 12h3v3h-3v-3zM24 15h3v3h-3v-3zM21 12h3v3h-3v-3zM21 15h3v3h-3v-3zM21 18h3v3h-3v-3zM18 12h3v3h-3v-3zM18 9h3v3h-3V9zM18 18h3v3h-3v-3zM18 15h3v3h-3v-3zM18 21h3v3h-3v-3zM18 6h-3v3h3V6zM18 3h-3v3h3V3zM18 12h-3v3h3v-3zM18 9h-3v3h3V9zM18 18h-3v3h3v-3zM18 15h-3v3h3v-3zM18 21h-3v3h3v-3zM18 24h-3v3h3v-3zM18 27h-3v3h3v-3zM27 15h3v3h-3v-3zM24 18h3v3h-3v-3zM21 21h3v3h-3v-3zM21 24h-3v3h3v-3zM6 15H3v3h3v-3zM9 18H6v3h3v-3zM12 21H9v3h3v-3zM15 24h-3v3h3v-3z" fill="red"/></svg>